# xmcd
#
# Track frame offsets:
#	150
#	14608
#	30903
#	45369
#	62078
#	75364
#	87960
#	99993
#	114242
#	130706
#	144726
#	158672
#	174173
#	188995
#	207328
#	224446
#	244419
#	257173
#	274199
#
# Disc length: 3871 seconds
#
# Revision: 1
# Processed by: cddbd v1.5.2PL0 Copyright (c) Steve Scherf et al.
# Submitted via: audiograbber 1.82.02
#
DISCID=fc0f1d13
DTITLE=Various Artist - Country Radio - April 2020
DYEAR=2020
DGENRE=Country
TTITLE0=Old Dominion - Some People Do
TTITLE1=A Thousand Horses  - Drinking Song
TTITLE2=Tyler Farr - Only Truck In Town (PO Clean Edit)
TTITLE3=Luke Combs (Ft. Eric Church) - Does To Me (PO Clean Edit)
TTITLE4=King Calaway - No Matter What
TTITLE5=Hot Country Knights (Ft. Travis Tritt) - Pick Her Up
TTITLE6=Dylan Scovt  - Nobody
TTITLE7=Abby Anderson - I'll Still Love You
TTITLE8=Desert City Ramblers - Hillbilly Rollin' Stone
TTITLE9=Matt Koerner - Race, The
TTITLE10=Russell Dickerson  - Love You Like I Used To
TTITLE11=Auburn Road - Warning
TTITLE12=Dawn Marie - Love Stories
TTITLE13=Billy Ray Cyrus - I Am I Said
TTITLE14=Billy Ray Cyrus - Killing The Blues
TTITLE15=Billy Ray Cyrus - She Always Goes
TTITLE16=Kenny Chesney - Here and Now
TTITLE17=Johnny McGuire - I Can't Even
TTITLE18=Corbette Jackson - Heavenly
EXTD=
EXTT0=
EXTT1=
EXTT2=
EXTT3=
EXTT4=
EXTT5=
EXTT6=
EXTT7=
EXTT8=
EXTT9=
EXTT10=
EXTT11=
EXTT12=
EXTT13=
EXTT14=
EXTT15=
EXTT16=
EXTT17=
EXTT18=
PLAYORDER=
